<svg width="2481" height="820" viewBox="0 0 2481 820" fill="none" xmlns="http://www.w3.org/2000/svg">
<path d="M761.802 66.2122C761.802 102.78 724.975 132.424 679.548 132.424C634.121 132.424 597.294 102.78 597.294 66.2122C597.294 29.6442 634.121 0 679.548 0C724.975 0 761.802 29.6442 761.802 66.2122Z" fill="url(#paint0_linear_10_12)"/>
<path d="M862.292 106.09C862.292 138.087 831.632 164.026 793.81 164.026C755.988 164.026 725.327 138.087 725.327 106.09C725.327 74.093 755.988 48.1543 793.81 48.1543C831.632 48.1543 862.292 74.093 862.292 106.09Z" fill="url(#paint1_linear_10_12)"/>
<path d="M901 173.055C901 206.714 869.839 234 831.401 234C792.962 234 761.802 206.714 761.802 173.055C761.802 139.395 792.962 112.109 831.401 112.109C869.839 112.109 901 139.395 901 173.055Z" fill="url(#paint2_linear_10_12)"/>
<path d="M679.92 167.035C679.92 204.019 647.926 234 608.46 234C568.994 234 537 204.019 537 167.035C537 130.052 568.994 100.071 608.46 100.071C647.926 100.071 679.92 130.052 679.92 167.035Z" fill="url(#paint3_linear_10_12)"/>
<path d="M620.37 114.367H726.072H831.773V234H620.37V114.367Z" fill="url(#paint4_linear_10_12)"/>
<path d="M302 385C302 433.601 252.527 473 191.5 473C130.473 473 81 433.601 81 385C81 336.399 130.473 297 191.5 297C252.527 297 302 336.399 302 385Z" fill="url(#paint5_linear_10_12)"/>
<path d="M437 438C437 480.526 395.81 515 345 515C294.19 515 253 480.526 253 438C253 395.474 294.19 361 345 361C395.81 361 437 395.474 437 438Z" fill="url(#paint6_linear_10_12)"/>
<path d="M489 527C489 571.735 447.139 608 395.5 608C343.861 608 302 571.735 302 527C302 482.265 343.861 446 395.5 446C447.139 446 489 482.265 489 527Z" fill="url(#paint7_linear_10_12)"/>
<path d="M192 519C192 568.153 149.019 608 96 608C42.9807 608 0 568.153 0 519C0 469.847 42.9807 430 96 430C149.019 430 192 469.847 192 519Z" fill="url(#paint8_linear_10_12)"/>
<path d="M112 449H396V608H112V449Z" fill="url(#paint9_linear_10_12)"/>
<path d="M2370.1 677.309C2370.1 708.407 2340.76 733.617 2304.57 733.617C2268.38 733.617 2239.04 708.407 2239.04 677.309C2239.04 646.21 2268.38 621 2304.57 621C2340.76 621 2370.1 646.21 2370.1 677.309Z" fill="url(#paint10_linear_10_12)"/>
<path d="M2450.16 711.222C2450.16 738.433 2425.73 760.492 2395.6 760.492C2365.47 760.492 2341.04 738.433 2341.04 711.222C2341.04 684.011 2365.47 661.952 2395.6 661.952C2425.73 661.952 2450.16 684.011 2450.16 711.222Z" fill="url(#paint11_linear_10_12)"/>
<path d="M2481 768.17C2481 796.795 2456.17 820 2425.55 820C2394.93 820 2370.1 796.795 2370.1 768.17C2370.1 739.546 2394.93 716.341 2425.55 716.341C2456.17 716.341 2481 739.546 2481 768.17Z" fill="url(#paint12_linear_10_12)"/>
<path d="M2304.87 763.051C2304.87 794.503 2279.38 820 2247.93 820C2216.49 820 2191 794.503 2191 763.051C2191 731.6 2216.49 706.103 2247.93 706.103C2279.38 706.103 2304.87 731.6 2304.87 763.051Z" fill="url(#paint13_linear_10_12)"/>
<path d="M2257.42 718.26H2425.85V820H2257.42V718.26Z" fill="url(#paint14_linear_10_12)"/>
<path d="M1494 165C1494 221.333 1447.44 267 1390 267C1332.56 267 1286 221.333 1286 165C1286 108.667 1332.56 63 1390 63C1447.44 63 1494 108.667 1494 165Z" fill="url(#paint15_linear_10_12)"/>
<path d="M1543 203C1543 223.987 1526.21 241 1505.5 241C1484.79 241 1468 223.987 1468 203C1468 182.013 1484.79 165 1505.5 165C1526.21 165 1543 182.013 1543 203Z" fill="url(#paint16_linear_10_12)"/>
<path d="M1593 235C1593 252.673 1579.34 267 1562.5 267C1545.66 267 1532 252.673 1532 235C1532 217.327 1545.66 203 1562.5 203C1579.34 203 1593 217.327 1593 235Z" fill="url(#paint17_linear_10_12)"/>
<path d="M1302 202.5C1302 225.972 1283.42 245 1260.5 245C1237.58 245 1219 225.972 1219 202.5C1219 179.028 1237.58 160 1260.5 160C1283.42 160 1302 179.028 1302 202.5Z" fill="url(#paint18_linear_10_12)"/>
<path d="M1249 229C1249 249.987 1230.87 267 1208.5 267C1186.13 267 1168 249.987 1168 229C1168 208.013 1186.13 191 1208.5 191C1230.87 191 1249 208.013 1249 229Z" fill="url(#paint19_linear_10_12)"/>
<path d="M1208 213H1564V267H1208V213Z" fill="url(#paint20_linear_10_12)"/>
<defs>
<linearGradient id="paint0_linear_10_12" x1="719" y1="0" x2="719" y2="234" gradientUnits="userSpaceOnUse">
<stop offset="0.764423" stop-color="white"/>
<stop offset="1" stop-color="#B9B9B9"/>
</linearGradient>
<linearGradient id="paint1_linear_10_12" x1="719" y1="0" x2="719" y2="234" gradientUnits="userSpaceOnUse">
<stop offset="0.764423" stop-color="white"/>
<stop offset="1" stop-color="#B9B9B9"/>
</linearGradient>
<linearGradient id="paint2_linear_10_12" x1="719" y1="0" x2="719" y2="234" gradientUnits="userSpaceOnUse">
<stop offset="0.764423" stop-color="white"/>
<stop offset="1" stop-color="#B9B9B9"/>
</linearGradient>
<linearGradient id="paint3_linear_10_12" x1="719" y1="0" x2="719" y2="234" gradientUnits="userSpaceOnUse">
<stop offset="0.764423" stop-color="white"/>
<stop offset="1" stop-color="#B9B9B9"/>
</linearGradient>
<linearGradient id="paint4_linear_10_12" x1="719" y1="0" x2="719" y2="234" gradientUnits="userSpaceOnUse">
<stop offset="0.764423" stop-color="white"/>
<stop offset="1" stop-color="#B9B9B9"/>
</linearGradient>
<linearGradient id="paint5_linear_10_12" x1="244.5" y1="297" x2="244.5" y2="608" gradientUnits="userSpaceOnUse">
<stop offset="0.663462" stop-color="white"/>
<stop offset="1" stop-color="#B9B9B9"/>
</linearGradient>
<linearGradient id="paint6_linear_10_12" x1="244.5" y1="297" x2="244.5" y2="608" gradientUnits="userSpaceOnUse">
<stop offset="0.663462" stop-color="white"/>
<stop offset="1" stop-color="#B9B9B9"/>
</linearGradient>
<linearGradient id="paint7_linear_10_12" x1="244.5" y1="297" x2="244.5" y2="608" gradientUnits="userSpaceOnUse">
<stop offset="0.663462" stop-color="white"/>
<stop offset="1" stop-color="#B9B9B9"/>
</linearGradient>
<linearGradient id="paint8_linear_10_12" x1="244.5" y1="297" x2="244.5" y2="608" gradientUnits="userSpaceOnUse">
<stop offset="0.663462" stop-color="white"/>
<stop offset="1" stop-color="#B9B9B9"/>
</linearGradient>
<linearGradient id="paint9_linear_10_12" x1="244.5" y1="297" x2="244.5" y2="608" gradientUnits="userSpaceOnUse">
<stop offset="0.663462" stop-color="white"/>
<stop offset="1" stop-color="#B9B9B9"/>
</linearGradient>
<linearGradient id="paint10_linear_10_12" x1="2336" y1="621" x2="2336" y2="820" gradientUnits="userSpaceOnUse">
<stop stop-color="white"/>
<stop offset="1" stop-color="#B9B9B9"/>
</linearGradient>
<linearGradient id="paint11_linear_10_12" x1="2336" y1="621" x2="2336" y2="820" gradientUnits="userSpaceOnUse">
<stop stop-color="white"/>
<stop offset="1" stop-color="#B9B9B9"/>
</linearGradient>
<linearGradient id="paint12_linear_10_12" x1="2336" y1="621" x2="2336" y2="820" gradientUnits="userSpaceOnUse">
<stop stop-color="white"/>
<stop offset="1" stop-color="#B9B9B9"/>
</linearGradient>
<linearGradient id="paint13_linear_10_12" x1="2336" y1="621" x2="2336" y2="820" gradientUnits="userSpaceOnUse">
<stop stop-color="white"/>
<stop offset="1" stop-color="#B9B9B9"/>
</linearGradient>
<linearGradient id="paint14_linear_10_12" x1="2336" y1="621" x2="2336" y2="820" gradientUnits="userSpaceOnUse">
<stop stop-color="white"/>
<stop offset="1" stop-color="#B9B9B9"/>
</linearGradient>
<linearGradient id="paint15_linear_10_12" x1="1380.5" y1="63" x2="1380.5" y2="267" gradientUnits="userSpaceOnUse">
<stop offset="0.745192" stop-color="white"/>
<stop offset="1" stop-color="#D7D7D7"/>
</linearGradient>
<linearGradient id="paint16_linear_10_12" x1="1380.5" y1="63" x2="1380.5" y2="267" gradientUnits="userSpaceOnUse">
<stop offset="0.745192" stop-color="white"/>
<stop offset="1" stop-color="#D7D7D7"/>
</linearGradient>
<linearGradient id="paint17_linear_10_12" x1="1380.5" y1="63" x2="1380.5" y2="267" gradientUnits="userSpaceOnUse">
<stop offset="0.745192" stop-color="white"/>
<stop offset="1" stop-color="#D7D7D7"/>
</linearGradient>
<linearGradient id="paint18_linear_10_12" x1="1380.5" y1="63" x2="1380.5" y2="267" gradientUnits="userSpaceOnUse">
<stop offset="0.745192" stop-color="white"/>
<stop offset="1" stop-color="#D7D7D7"/>
</linearGradient>
<linearGradient id="paint19_linear_10_12" x1="1380.5" y1="63" x2="1380.5" y2="267" gradientUnits="userSpaceOnUse">
<stop offset="0.745192" stop-color="white"/>
<stop offset="1" stop-color="#D7D7D7"/>
</linearGradient>
<linearGradient id="paint20_linear_10_12" x1="1380.5" y1="63" x2="1380.5" y2="267" gradientUnits="userSpaceOnUse">
<stop offset="0.745192" stop-color="white"/>
<stop offset="1" stop-color="#D7D7D7"/>
</linearGradient>
</defs>
</svg>
