<svg width="210" height="203" viewBox="0 0 210 203" fill="none" xmlns="http://www.w3.org/2000/svg">
<g filter="url(#filter0_f_6_2149)">
<g filter="url(#filter1_f_6_2149)">
<path d="M148.102 170.858C146.682 170.859 145.282 170.525 144.025 169.886L105.81 150.452C105.24 150.163 104.567 150.163 103.998 150.452L65.7825 169.852C64.3374 170.586 62.7087 170.915 61.0803 170.802C59.452 170.688 57.889 170.136 56.5681 169.209C55.2472 168.281 54.2211 167.015 53.6058 165.553C52.9905 164.091 52.8105 162.492 53.0862 160.937L60.3699 119.879C60.4877 119.215 60.2627 118.536 59.7715 118.073L28.875 88.9901C27.7049 87.8881 26.8773 86.4915 26.4859 84.9584C26.0945 83.4252 26.1549 81.8168 26.6603 80.3151C27.1657 78.8134 28.0959 77.4785 29.3455 76.4614C30.5952 75.4444 32.1144 74.7858 33.7312 74.5602L76.4514 68.5557C77.0969 68.465 77.6577 68.0654 77.9542 67.4849L97.055 30.0863C97.7782 28.6714 98.8966 27.4802 100.284 26.6477C101.671 25.8151 103.271 25.3743 104.904 25.375C106.542 25.3703 108.148 25.8101 109.541 26.6445C110.933 27.4789 112.055 28.6744 112.779 30.0948L131.871 67.4848C132.167 68.0654 132.728 68.465 133.374 68.5558L176.094 74.5602C177.711 74.7858 179.23 75.4444 180.479 76.4614C181.729 77.4785 182.659 78.8134 183.165 80.3151C183.67 81.8168 183.73 83.4252 183.339 84.9584C182.948 86.4915 182.12 87.8881 180.95 88.9901L150.079 118.082C149.588 118.544 149.363 119.223 149.481 119.887L156.765 160.945C156.985 162.164 156.926 163.415 156.592 164.609C156.257 165.804 155.656 166.913 154.83 167.858C154.004 168.804 152.973 169.562 151.811 170.081C150.648 170.599 149.383 170.864 148.102 170.858Z" fill="#939DC0"/>
</g>
</g>
<defs>
<filter id="filter0_f_6_2149" x="-3" y="-3" width="216" height="209" filterUnits="userSpaceOnUse" color-interpolation-filters="sRGB">
<feFlood flood-opacity="0" result="BackgroundImageFix"/>
<feBlend mode="normal" in="SourceGraphic" in2="BackgroundImageFix" result="shape"/>
<feGaussianBlur stdDeviation="1.5" result="effect1_foregroundBlur_6_2149"/>
</filter>
<filter id="filter1_f_6_2149" x="25.2311" y="24.375" width="159.363" height="147.483" filterUnits="userSpaceOnUse" color-interpolation-filters="sRGB">
<feFlood flood-opacity="0" result="BackgroundImageFix"/>
<feBlend mode="normal" in="SourceGraphic" in2="BackgroundImageFix" result="shape"/>
<feGaussianBlur stdDeviation="0.5" result="effect1_foregroundBlur_6_2149"/>
</filter>
</defs>
</svg>
