<svg width="2560" height="1440" viewBox="0 0 2560 1440" fill="none" xmlns="http://www.w3.org/2000/svg">
<rect width="2560" height="1440" fill="#2A2A2A"/>
<g clip-path="url(#clip0_0_1)">
<rect width="2560" height="1440" fill="url(#paint0_linear_0_1)"/>
<path d="M2096.5 1244.21C2075.5 1249.21 2080 1256.21 1736 1483.71H2421C2377.5 1456.88 2410.1 1467.31 2404.5 1459.71C2397.5 1450.21 2395 1443.21 2366.5 1419.71C2357 1410.21 2345 1395.71 2309.5 1365.21C2290.5 1346.21 2276.5 1343.71 2229 1296.21C2223.4 1288.61 2223.33 1294.5 2221 1287.5L2187.5 1265.71L2150 1244.21C2136.5 1242.54 2113.3 1240.21 2096.5 1244.21Z" fill="#4DABCE"/>
<path d="M160.5 1267.5C139.5 1272.5 147 1256.21 -197 1483.71H488C444.5 1456.88 477.1 1467.31 471.5 1459.71C464.5 1450.21 462 1443.21 433.5 1419.71C424 1410.21 412 1395.71 376.5 1365.21C357.5 1346.21 346 1355.5 298.5 1308L249 1279.5L192 1267.5C192 1267.5 177.3 1263.5 160.5 1267.5Z" fill="#4DABCE"/>
<rect x="701" y="1401" width="134" height="23" fill="#7A74B0"/>
<rect x="693" y="1417" width="134" height="23" fill="#7A74B0"/>
<path d="M550.813 1286.42H738.004V1500H550.813V1286.42Z" fill="#4B86BD"/>
<path d="M539 1276H748V1296.84H539V1276Z" fill="#4B86BD"/>
<path d="M705 1242H731V1277H705V1242Z" fill="#7A74B0"/>
<path d="M630 1312H658V1344H630V1312Z" fill="#3972B0"/>
<path d="M630 1356H658V1388H630V1356Z" fill="#3972B0"/>
<path d="M630 1400H658V1432H630V1400Z" fill="#3972B0"/>
<path d="M690 1312H718V1344H690V1312Z" fill="#3972B0"/>
<path d="M690 1400H718V1432H690V1400Z" fill="#3972B0"/>
<path d="M690 1356H718V1388H690V1356Z" fill="#3972B0"/>
<path d="M325 1338H512V1552H325V1338Z" fill="#7A74B0"/>
<path d="M313 1328H522V1349H313V1328Z" fill="#7A74B0"/>
<path d="M324.813 1338.42H512.004V1552H324.813V1338.42Z" fill="#7A74B0"/>
<path d="M313 1328H522V1348.84H313V1328Z" fill="#7A74B0"/>
<path d="M349 1367H377V1398H349V1367Z" fill="#3972B0"/>
<path d="M408 1367H436V1398H408V1367Z" fill="#3972B0"/>
<path d="M349 1413H377V1445H349V1413Z" fill="#3972B0"/>
<path d="M349 1460H377V1492H349V1460Z" fill="#3972B0"/>
<path d="M349 1507H377V1539H349V1507Z" fill="#3972B0"/>
<path d="M408 1460H436V1492H408V1460Z" fill="#3972B0"/>
<path d="M466 1460H494V1492H466V1460Z" fill="#3972B0"/>
<path d="M408 1413H436V1445H408V1413Z" fill="#3972B0"/>
<path d="M466 1413H494V1445H466V1413Z" fill="#3972B0"/>
<path d="M466 1367H494V1398H466V1367Z" fill="#3972B0"/>
<path d="M408 1507H436V1539H408V1507Z" fill="#3972B0"/>
<path d="M468 1507H496V1539H468V1507Z" fill="#3972B0"/>
<path d="M325 1338H512V1552H325V1338Z" fill="#7A74B0"/>
<path d="M313 1328H522V1349H313V1328Z" fill="#7A74B0"/>
<path d="M324.813 1338.42H512.004V1552H324.813V1338.42Z" fill="#7A74B0"/>
<path d="M313 1328H522V1348.84H313V1328Z" fill="#7A74B0"/>
<path d="M349 1367H377V1398H349V1367Z" fill="#3972B0"/>
<path d="M408 1367H436V1398H408V1367Z" fill="#3972B0"/>
<path d="M349 1413H377V1445H349V1413Z" fill="#3972B0"/>
<path d="M349 1460H377V1492H349V1460Z" fill="#3972B0"/>
<path d="M349 1507H377V1539H349V1507Z" fill="#3972B0"/>
<path d="M408 1460H436V1492H408V1460Z" fill="#3972B0"/>
<path d="M466 1460H494V1492H466V1460Z" fill="#3972B0"/>
<path d="M408 1413H436V1445H408V1413Z" fill="#3972B0"/>
<path d="M466 1413H494V1445H466V1413Z" fill="#3972B0"/>
<path d="M466 1367H494V1398H466V1367Z" fill="#3972B0"/>
<path d="M408 1507H436V1539H408V1507Z" fill="#3972B0"/>
<path d="M468 1507H496V1539H468V1507Z" fill="#3972B0"/>
<path d="M429 1232H616V1446H429V1232Z" fill="#7A74B0"/>
<path d="M417 1222H626V1243H417V1222Z" fill="#7A74B0"/>
<path d="M428.813 1232.42H616.004V1446H428.813V1232.42Z" fill="#7A74B0"/>
<path d="M417 1222H626V1242.84H417V1222Z" fill="#7A74B0"/>
<path d="M453 1261H481V1292H453V1261Z" fill="#3972B0"/>
<path d="M512 1261H540V1292H512V1261Z" fill="#3972B0"/>
<path d="M453 1307H481V1339H453V1307Z" fill="#3972B0"/>
<path d="M453 1354H481V1386H453V1354Z" fill="#3972B0"/>
<path d="M453 1401H481V1433H453V1401Z" fill="#3972B0"/>
<path d="M512 1354H540V1386H512V1354Z" fill="#3972B0"/>
<path d="M570 1354H598V1386H570V1354Z" fill="#3972B0"/>
<path d="M512 1307H540V1339H512V1307Z" fill="#3972B0"/>
<path d="M570 1307H598V1339H570V1307Z" fill="#3972B0"/>
<path d="M570 1261H598V1292H570V1261Z" fill="#3972B0"/>
<path d="M512 1401H540V1433H512V1401Z" fill="#3972B0"/>
<path d="M572 1401H600V1433H572V1401Z" fill="#3972B0"/>
<rect x="969" y="1158" width="178" height="306" fill="url(#paint1_linear_0_1)"/>
<rect x="1058" y="1060" width="4" height="89" fill="#4DABCE"/>
<rect x="1761" y="1289" width="160" height="313" fill="url(#paint2_linear_0_1)"/>
<rect x="1027" y="1140" width="61" height="18" fill="#4DABCE"/>
<rect x="1683" y="1375" width="64" height="299" fill="#318FB2"/>
<rect x="1467" y="1265" width="175" height="235" fill="#4DABCE"/>
<rect x="2485" y="1328" width="132" height="272" fill="#4DABCE"/>
<rect x="1446" y="1255" width="218" height="17" fill="#4DABCE"/>
<rect x="1797" y="1272" width="88" height="34" fill="#4DABCE"/>
<rect x="1257" y="1363" width="188" height="111" fill="#7A74B0"/>
<rect x="1298" y="1338" width="106" height="49" fill="#7A74B0"/>
<rect x="1290" y="1328" width="121" height="17" fill="#7A74B0"/>
</g>
<defs>
<linearGradient id="paint0_linear_0_1" x1="1280" y1="0" x2="1280" y2="1440" gradientUnits="userSpaceOnUse">
<stop offset="0.211538" stop-color="#F98D83"/>
<stop offset="1" stop-color="#59CCDF"/>
</linearGradient>
<linearGradient id="paint1_linear_0_1" x1="1058" y1="1158" x2="1058" y2="1464" gradientUnits="userSpaceOnUse">
<stop stop-color="#4DABCE"/>
<stop offset="1" stop-color="#318FB2"/>
</linearGradient>
<linearGradient id="paint2_linear_0_1" x1="1841" y1="1289" x2="1841" y2="1602" gradientUnits="userSpaceOnUse">
<stop stop-color="#4DABCE"/>
<stop offset="1" stop-color="#2D89AC"/>
</linearGradient>
<clipPath id="clip0_0_1">
<rect width="2560" height="1440" fill="white"/>
</clipPath>
</defs>
</svg>
